<svg xmlns="http://www.w3.org/2000/svg">

 <g>
  <g >
   <g id="svg_1" stroke="null">
    <path d="m69.93209,88.01758c-0.37706,0.03505 -0.75544,0.06607 -1.13551,0.09306c0.38025,-0.02659 0.75844,-0.05841 1.13551,-0.09306z" fill="#D49E6C" id="svg_2" stroke="null"/>
    <path d="m90.97722,43.24538c-2.04939,-1.67449 -4.75784,-4.73823 -7.89417,-8.28702c-1.2422,-1.40538 -2.56352,-2.9018 -3.96677,-4.45039c-0.43219,-0.47517 -1.08844,-0.61839 -1.65526,-0.36197c-2.01714,0.90643 -5.31453,-0.0141 -8.02449,-2.24715c-3.68852,-3.03716 -4.83547,-6.95718 -3.78227,-8.8472c0.38963,-0.69876 0.23288,-1.59895 -0.36469,-2.0993c-2.62802,-2.1984 -5.11222,-4.06485 -7.5938,-5.70449c1.15557,0.76362 2.3132,1.58243 3.48433,2.45503c-10.46406,-1.27142 -31.62338,2.31463 -33.70708,19.72582c-0.65888,5.50508 0.65813,12.13715 3.6244,18.86531c0.33788,-0.06909 0.6825,-0.12811 1.03463,-0.17343c4.61665,-0.59341 8.60855,1.16386 8.91606,3.92486c0.23888,2.14583 -1.81839,4.26588 -4.91384,5.38301c8.02749,12.04167 21.06313,22.84576 37.16892,26.15747c-1.09894,0.18088 -2.21645,0.3235 -3.34802,0.42945c9.92406,-0.91751 18.76793,-4.68828 23.11252,-12.55371c2.72439,-4.93362 10.62738,-21.84264 -2.09045,-32.21628l-0.00002,-0.00001zm-50.07406,-3.04683c-6.46335,-1.84107 -10.92532,-6.48443 -9.96606,-10.37122c0.95926,-3.88679 6.97673,-5.54516 13.44008,-3.70409c6.46335,1.84107 10.92532,6.48443 9.96606,10.37122c-0.95926,3.88679 -6.97673,5.54516 -13.44008,3.70409zm16.08704,33.7971c-4.98378,-0.20083 -8.93349,-2.95215 -8.82212,-6.14562c0.11156,-3.19327 4.24203,-5.61929 9.22581,-5.41866c4.98378,0.20083 8.93349,2.95215 8.82212,6.14562c-0.11156,3.19347 -4.24203,5.61949 -9.22581,5.41866zm20.78432,-22.38892c-0.79069,2.16698 -4.13178,2.78678 -7.46255,1.38423c-3.33077,-1.40256 -5.38972,-4.2965 -4.59903,-6.46348c0.79069,-2.16698 4.13178,-2.78678 7.46255,-1.38423c3.33077,1.40256 5.38972,4.2963 4.59903,6.46348zm8.15086,18.93339c-2.52752,2.59925 -5.7291,3.41303 -7.15092,1.8175c-1.42182,-1.59553 -0.52538,-4.99606 2.00232,-7.59551s5.7291,-3.41303 7.15092,-1.8175c1.42163,1.59573 0.52519,4.99626 -2.00232,7.59551z" fill="#D49E6C" id="svg_3" stroke="null"/>
    <path d="m36.13407,61.42865c3.09546,-1.11713 5.15272,-3.23718 4.91384,-5.38301c-0.3075,-2.761 -4.2994,-4.51827 -8.91606,-3.92486c-0.35213,0.04532 -0.69675,0.10434 -1.03463,0.17343c-2.96608,-6.72816 -4.28328,-13.36023 -3.6244,-18.86531c2.0837,-17.41119 23.24302,-20.99724 33.70708,-19.72582c-1.17113,-0.87259 -2.32858,-1.69141 -3.48433,-2.45503c-15.77654,-10.43024 -28.24536,-6.39217 -38.36161,-1.06536c-15.55941,8.19396 -19.86031,30.26301 -16.00622,46.87009c4.05021,17.44402 22.64808,22.7096 40.63356,27.80194l2.8067,0.79786c5.74522,1.63984 12.04114,2.59502 18.15386,2.59341c0.35981,0 0.71888,-0.00342 1.07719,-0.01027c0.32363,-0.00624 0.6465,-0.01551 0.96863,-0.02719c0.22575,-0.00826 0.45075,-0.01893 0.67575,-0.03001c0.08663,-0.00423 0.17363,-0.00765 0.26006,-0.01229c0.28181,-0.01511 0.56307,-0.03243 0.84357,-0.05217c0.0165,-0.00121 0.03319,-0.00222 0.04969,-0.00342c0.37988,-0.02699 0.75844,-0.05801 1.13551,-0.09306c0.00769,-0.0006 0.01519,-0.00161 0.02269,-0.00222c1.13157,-0.10575 2.24908,-0.24836 3.34802,-0.42945c-16.10579,-3.31171 -29.14162,-14.11559 -37.16892,-26.15727l0.00002,0.00001zm-6.71742,-49.54971c1.79307,-0.79625 4.81934,-1.11894 6.90248,-0.15268c0.76032,0.35411 1.10888,1.30144 0.78075,2.11965c-0.32813,0.81357 -1.20563,1.19287 -1.97307,0.83875c-1.16457,-0.54285 -3.37202,-0.35572 -4.56453,0.17162c-0.1875,0.08339 -0.38081,0.12267 -0.57282,0.12267c-0.58894,0 -1.14694,-0.37446 -1.38582,-0.99607c-0.31631,-0.82284 0.04688,-1.76392 0.81301,-2.10393l0,-0.00001zm-23.14308,12.68967c1.26095,-2.71608 2.83127,-5.22469 4.69015,-7.47022c2.24851,-0.75617 4.59359,-1.04099 6.70767,-1.29459c2.41408,-0.28804 4.69484,-0.56179 6.33398,-1.41625c0.747,-0.38715 1.64214,-0.05499 2.00401,0.74589c0.36188,0.79947 0.05119,1.76412 -0.69432,2.15288c-2.10358,1.09679 -4.63334,1.40054 -7.31105,1.72162c-4.4854,0.53621 -9.12399,1.09376 -11.73045,5.56067l0.00001,0zm17.38192,24.49467c-0.066,0.8875 -0.80869,1.53429 -1.61138,1.48232c-1.15144,-0.10071 -1.70945,0.22661 -2.06551,0.51929c-0.27244,0.225 -0.59325,0.33357 -0.91107,0.33357c-0.45113,0 -0.89644,-0.21714 -1.19101,-0.63108c-0.50532,-0.705 -0.38081,-1.71679 0.27694,-2.25823c1.12501,-0.93 2.47127,-1.31554 4.12203,-1.17716c0.82632,0.06949 1.44451,0.8452 1.38001,1.73129l-0.00001,0zm-11.04869,-14.63025c0.5865,-4.45099 2.93064,-7.77519 5.23616,-7.4245c2.30533,0.35049 3.69884,4.24292 3.11233,8.69411c-0.5865,4.45099 -2.93064,7.77519 -5.23616,7.4245c-2.30533,-0.35069 -3.69884,-4.24312 -3.11233,-8.69411zm11.6697,30.08515c-0.08063,0.82626 -0.73238,1.44143 -1.4897,1.44143c-0.05269,0 -0.10556,-0.00322 -0.15975,-0.00947c-2.65877,-0.30053 -5.00534,-1.8743 -6.43804,-4.31503c-1.35057,-2.30234 -1.65376,-5.04521 -0.83494,-7.52683c0.27694,-0.84037 1.13682,-1.27948 1.91457,-0.98036c0.78075,0.29751 1.18951,1.21805 0.91257,2.0568c-0.50982,1.54537 -0.3105,3.27001 0.54638,4.73199c0.93901,1.60036 2.47558,2.63128 4.21578,2.82948c0.82351,0.09286 1.42107,0.88609 1.33313,1.77198l0,0.00001zm0.05288,-6.32369c-0.28425,-2.55151 2.67995,-5.06354 6.7746,-5.89907c1.3472,3.05549 3.03264,6.1283 5.03122,9.12698c-0.88913,0.32128 -1.85907,0.56461 -2.88996,0.69695c-4.61665,0.59341 -8.60837,-1.16386 -8.91587,-3.92486l0.00001,0zm24.42803,27.95402c-1.00182,-1.17393 -1.82401,-2.41615 -2.60177,-3.59935c-1.45313,-2.2125 -2.70845,-4.12307 -4.82515,-5.16949c-2.72308,-1.34555 -6.45116,-3.18823 -7.08548,-7.15076c-0.14063,-0.87803 0.40725,-1.71054 1.22307,-1.86161c0.83494,-0.14644 1.59226,0.43912 1.73289,1.31393c0.36769,2.29126 3.14796,3.66663 5.38335,4.77147c2.84908,1.4084 4.46197,3.86342 6.02197,6.23808c1.90576,2.89878 3.70465,5.63842 7.78711,6.91952c0.02494,0.00786 0.042,0.0284 0.06638,0.03747c-2.62089,-0.35069 -5.19509,-0.86534 -7.70236,-1.49924l-0.00001,-0.00002z" fill="#B68052" id="svg_4" stroke="null"/>
    <ellipse transform="matrix(0.007031293508403936,-0.201288772589905,0.18736990941194812,0.007553616503674008,850.9539950483115,796.2148173362104) " cx="3452.85562" cy="-4365.8999" rx="28.725" ry="48.161" fill="#B68052" id="svg_5" stroke="null"/>
    <ellipse transform="matrix(0.06843792348179832,-0.18753111906454673,0.17456358016864176,0.07352186730242702,863.3707718811363,770.5644881287625) " cx="1793.71589" cy="-5238.11065" rx="20.923" ry="34.547" fill="#B68052" id="svg_6" stroke="null"/>
    <ellipse transform="matrix(-0.1296570522949686,-0.1455128683267761,0.13545083814589345,-0.13928868832774874,954.7041245358116,852.5631245864992) " cx="6028.29987" cy="-662.5178" rx="19.854" ry="33.789" fill="#B68052" id="svg_7" stroke="null"/>
    <ellipse transform="matrix(0.18564489873788634,0.0282203112577261,-0.02626891254739711,0.19943561867433696,871.3755901635399,664.6020133846087) " cx="-4950.90754" cy="-2456.03106" rx="22.484" ry="40.409" fill="#9D693C" id="svg_8" stroke="null"/>
    <path d="m29.98947,14.97914c0.19181,0 0.38531,-0.03928 0.57282,-0.12267c1.19232,-0.52714 3.39996,-0.71447 4.56453,-0.17162c0.76763,0.35411 1.64495,-0.02518 1.97307,-0.83875c0.32813,-0.81841 -0.02044,-1.76573 -0.78075,-2.11965c-2.08295,-0.96626 -5.10941,-0.64357 -6.90248,0.15268c-0.76613,0.34001 -1.12932,1.28089 -0.81301,2.10393c0.23888,0.62141 0.79688,0.99607 1.38582,0.99607l0,0.00001z" fill="#9D693C" id="svg_9" stroke="null"/>
    <path d="m22.94355,62.7462c-1.7402,-0.19821 -3.27696,-1.22912 -4.21578,-2.82948c-0.85688,-1.46198 -1.05619,-3.18662 -0.54638,-4.73199c0.27694,-0.83875 -0.13181,-1.75929 -0.91257,-2.0568c-0.77775,-0.29892 -1.63764,0.13999 -1.91457,0.98036c-0.81882,2.48161 -0.51563,5.22469 0.83494,7.52683c1.4327,2.44072 3.77927,4.0145 6.43804,4.31503c0.05419,0.00624 0.10688,0.00947 0.15975,0.00947c0.75732,0 1.40926,-0.61537 1.4897,-1.44143c0.08775,-0.88589 -0.50982,-1.67912 -1.33313,-1.77198l0,-0.00001z" fill="#9D693C" id="svg_10" stroke="null"/>
    <path d="m18.15346,48.50935c-0.65775,0.54144 -0.78225,1.55322 -0.27694,2.25823c0.29438,0.41394 0.73969,0.63108 1.19101,0.63108c0.31781,0 0.63863,-0.10857 0.91107,-0.33357c0.35588,-0.29268 0.91407,-0.62 2.06551,-0.51929c0.80269,0.05197 1.54538,-0.59482 1.61138,-1.48232c0.0645,-0.88589 -0.55369,-1.6618 -1.37982,-1.73109c-1.65095,-0.13879 -2.99721,0.24695 -4.12221,1.17695l0,0.00001z" fill="#9D693C" id="svg_11" stroke="null"/>
    <path d="m31.10379,52.29542c-4.09446,0.83553 -7.05867,3.34756 -6.7746,5.89907c0.3075,2.7612 4.2994,4.51847 8.91606,3.92486c1.03088,-0.13254 2.00082,-0.37567 2.88996,-0.69695c-1.99857,-2.99869 -3.68421,-6.0715 -5.03141,-9.12698l-0.00001,0z" fill="#9D693C" id="svg_12" stroke="null"/>
    <ellipse transform="matrix(0.18123862147261988,0.05162645093044395,-0.04805654736543811,0.19470201899870124,876.4712904448343,656.5185761478782) " cx="-5091.67636" cy="-1851.50741" rx="64.573" ry="36.146" fill="#B68052" id="svg_13" stroke="null"/>
    <path d="m25.31507,17.28612c0.74569,-0.38876 1.05619,-1.35341 0.69432,-2.15288c-0.36188,-0.80109 -1.25682,-1.13304 -2.00401,-0.74589c-1.63914,0.85447 -3.9199,1.12841 -6.33398,1.41625c-2.11426,0.2536 -4.45915,0.53842 -6.70767,1.29459c-1.85907,2.24554 -3.42921,4.75415 -4.69015,7.47022c2.60627,-4.46691 7.24504,-5.02446 11.73045,-5.56087c2.6777,-0.32088 5.20766,-0.62463 7.31105,-1.72142l-0.00001,0z" fill="#9D693C" id="svg_14" stroke="null"/>
    <path d="m48.60627,80.69077c-1.56001,-2.37466 -3.17289,-4.82968 -6.02197,-6.23808c-2.23539,-1.10464 -5.01566,-2.4802 -5.38335,-4.77147c-0.14063,-0.87501 -0.89794,-1.46037 -1.73289,-1.31393c-0.81601,0.15107 -1.3637,0.98358 -1.22307,1.86161c0.63432,3.96253 4.3624,5.80521 7.08548,7.15076c2.1167,1.04643 3.37202,2.95699 4.82515,5.16949c0.77775,1.1832 1.59995,2.42542 2.60177,3.59935c2.50727,0.6337 5.08147,1.14855 7.70255,1.49904c-0.02438,-0.00906 -0.04144,-0.02961 -0.06638,-0.03747c-4.08265,-1.28089 -5.88154,-4.02054 -7.7873,-6.91931l0.00001,0.00001z" fill="#9D693C" id="svg_15" stroke="null"/>
   </g>
   <g id="svg_16"/>
   <g id="svg_17"/>
   <g id="svg_18"/>
   <g id="svg_19"/>
   <g id="svg_20"/>
   <g id="svg_21"/>
   <g id="svg_22"/>
   <g id="svg_23"/>
   <g id="svg_24"/>
   <g id="svg_25"/>
   <g id="svg_26"/>
   <g id="svg_27"/>
   <g id="svg_28"/>
   <g id="svg_29"/>
   <g id="svg_30"/>
  </g>
 </g>
</svg>