<svg width="500" height="500" xmlns="http://www.w3.org/2000/svg">
 <g>
  <g id="vertical">
   <line y2="500" x2="0"   y1="0" x1="0" />
   <line y2="500" x2="100" y1="0" x1="100" />
   <line y2="500" x2="200" y1="0" x1="200" />
   <line y2="500" x2="400" y1="0" x1="400" />
   <line y2="500" x2="300" y1="0" x1="300" />
   <line y2="500" x2="300" y1="0" x1="300" />
   <line y2="500" x2="500" y1="0" x1="500" />
  </g>
  <g id="horizontal" transform="rotate(90 250,250) ">
   <line y2="500" x2="0"   y1="0" x1="0" />
   <line y2="500" x2="100" y1="0" x1="100" />
   <line y2="500" x2="200" y1="0" x1="200" />
   <line y2="500" x2="400" y1="0" x1="400" />
   <line y2="500" x2="300" y1="0" x1="300" />
   <line y2="500" x2="300" y1="0" x1="300" />
   <line y2="500" x2="500" y1="0" x1="500" />
  </g>
 </g>
</svg>