 <svg xmlns="http://www.w3.org/2000/svg">
	 <g>
  <title>Layer 1</title>
  <g stroke="null" id="svg_7">
   <g stroke="null" id="svg_6">
    <g stroke="null" id="svg_5">
     <g stroke="null" id="svg_23" fill="#8BC34A">
      <path stroke="null" fill="darkblue" id="svg_21" d="m24.78461,78.59764l-20.49466,0c-1.12721,0 -2.04947,-1.73794 -2.04947,-3.86203l0,-65.65447c0,-2.12414 0.92226,-3.86203 2.04947,-3.86203l20.49466,0c1.12721,0 2.04947,1.73788 2.04947,3.86203l0,65.65447c0,2.12409 -0.92226,3.86203 -2.04947,3.86203z"/>
      <path stroke="null" fill="darkblue" id="svg_22" d="m18.63623,18.73622l-8.19787,0c-0.61484,0 -1.02473,-0.77241 -1.02473,-1.93101l0,-13.51709c0,-1.15861 0.40989,-1.93101 1.02473,-1.93101l8.19787,0c0.61484,0 1.02472,0.77241 1.02472,1.93101l0,13.51709c0,1.15861 -0.40988,1.93101 -1.02472,1.93101z"/>
     </g>
     <polygon stroke="null" id="svg_24" points="20.501632690429688,41.912006855010986 14.663229942321777,41.912006855010986 16.998580932617188,26.934431552886963 7.763251304626465,44.635212421417236 13.601675987243652,44.635212421417236 11.266318321228027,59.612751483917236 " fill="#FFEB3B"/>
    </g>
    <path stroke="null" id="svg_18" d="m8.88819,11.45332l3.28951,0l0,-3.22429l3.37441,0l0,3.22429l3.28951,0l0,3.30751l-3.28951,0l0,3.22429l-3.37441,0l0,-3.22429l-3.28951,0l0,-3.30751z" stroke-opacity="null" stroke-width="null" fill="#ffff56"/>
    <path stroke="null" id="svg_19" d="m10.11286,67.28767l9.47945,0l0,3.90244l-9.47945,0l0,-3.90244z" stroke-opacity="null" stroke-width="null" fill="#ffff56"/>
   </g>
  </g>
 </g>
</svg>