<svg xmlns="http://www.w3.org/2000/svg">
 <g id="robot" transform="translate(1,1) rotate(0,60,60)">
	<rect stroke="#000" fill="#bf0000" stroke-width="1.5" x="26.00877" y="13.42374" width="48.37722" height="40.49999" id="svg_1"/>
	<rect stroke="#000" fill="#fff" stroke-width="1.5" stroke-opacity="null" fill-opacity="null" x="45.35398" y="54.37895" width="9.24981" height="6.85357" id="svg_8"/>
	<line stroke="#000" fill="none" stroke-width="1.5" stroke-opacity="null" fill-opacity="null" x1="39.99568" y1="27.23001" x2="21.96034" y2="9.74526" id="svg_9" stroke-linejoin="null" stroke-linecap="null"/>
	<line stroke="#000" fill="none" stroke-width="1.5" stroke-opacity="null" fill-opacity="null" x1="61.03737" y1="27.25218" x2="78.21103" y2="9.69259" id="svg_10" stroke-linejoin="null" stroke-linecap="null"/>
	<ellipse stroke="#000" fill="#0000bf" stroke-width="1.5" stroke-opacity="null" cx="80.15682" cy="6.86213" id="svg_13" rx="3.27057" ry="3.26432"/>
	<path stroke="#000" fill="#ff0000" stroke-width="1.5" stroke-opacity="null" d="m49.88098,60.58934c1.24572,-2.55227 6.1265,0 0,3.28149c-6.1265,-3.28149 -1.24572,-5.83376 0,-3.28149z" id="svg_20"/>
	<path fill="#fff" stroke="#000" stroke-width="1.5" stroke-opacity="null" fill-opacity="null" opacity="0.5" d="m103.86222,20.41694" id="svg_21"/>
	<g stroke="null" id="svg_14">
	   <ellipse stroke="#000" fill="#fff" stroke-width="1.5" stroke-opacity="null" fill-opacity="null" cx="34.76544" cy="54.33944" id="svg_4" rx="7.76769" ry="3.23437"/>
	   <ellipse stroke="#000" fill="#000000" stroke-width="1.5" stroke-opacity="null" cx="34.52154" cy="55.72664" id="svg_6" rx="2.06391" ry="2.01211"/>
	</g>
	<rect stroke="#000" fill="#7f0000" stroke-width="1.5" x="73.42482" y="25.18976" width="3.38927" height="16.84141" id="svg_3"/>
	<rect stroke="#000" fill="#4c4c4c" stroke-width="1.5" stroke-opacity="null" x="86.86023" y="11.17972" width="10.16691" height="44.31616" id="svg_18"/>
	<rect stroke="#000" fill="#7f0000" stroke-width="1.5" stroke-opacity="null" x="76.89491" y="29.87847" width="9.0452" height="7.06443" id="svg_19"/>
	<g stroke="null" id="svg_32">
	   <ellipse stroke="#000" fill="#fff" stroke-width="1.5" stroke-opacity="null" fill-opacity="null" cx="64.98478" cy="53.67278" id="svg_30" rx="7.76769" ry="3.23437"/>
	   <ellipse stroke="#000" fill="#000000" stroke-width="1.5" stroke-opacity="null" cx="64.74088" cy="55.05997" id="svg_31" rx="2.06391" ry="2.01211"/>
	</g>
	<ellipse stroke="#000" fill="#ffff00" stroke-width="1.5" stroke-opacity="null" cx="20.13483" cy="6.69107" id="svg_34" rx="3.27057" ry="3.26432"/>
	<g id="svg_39">
	   <rect stroke="#000" fill="#7f0000" stroke-width="1.5" x="24.6967" y="23.97046" width="3.38927" height="16.84141" id="svg_35"/>
	   <rect stroke="#000" fill="#666666" stroke-width="1.5" stroke-opacity="null" x="3.24613" y="11.71481" width="10.82042" height="44.31616" id="svg_36"/>
	   <rect stroke="#000" fill="#7f0000" stroke-width="1.5" stroke-opacity="null" x="14.83345" y="29.36092" width="9.0452" height="7.06443" id="svg_37"/>
	</g>
	<rect id="svg_41" height="14.99997" width="20.16663" y="27.25684" x="40.55219" stroke-opacity="null" stroke-width="1.5" stroke="#000" fill="#ff5656"/>
 </g>
</svg>